<svg xmlns="http://www.w3.org/2000/svg" width="500" height="500"><rect width="500" height="500" x="0" y="0" fill="#FFFFFF" id="backgorund"/><g transform="translate(250,250)" id="viz"><path fill="#1f77b4" display="" d="M0.999988425966111,-117.9957627338708A118,118,0,1,1,-97.10261407379139,67.04537523227333L-49.093261591560896,34.49422656478286A60,60,0,1,0,0.9999884259661191,-59.99166628080882Z"><title>Arábica</title></path><path fill="#1f77b4" display="" d="M-98.22497521411995,65.39001639536053A118,118,0,0,1,-0.9999884259660994,-117.9957627338708L-0.999988425966113,-59.99166628080882A60,60,0,0,0,-50.215622731889425,32.838867727870124Z"><title>Robusta</title></path><path fill="#1f77b4" display="" d="M0.9999884259661069,-177.99719105409483A178,178,0,0,1,37.28752526495388,-174.0506835942204L24.818947868068175,-117.40536540857966A120,120,0,0,0,0.9999884259661175,-119.99583335744593Z"><title> América</title></path><path fill="#1f77b4" display="" d="M39.240743769495204,-173.6207476899487A178,178,0,0,1,123.1345590545571,128.5374667808565L83.24705675380783,86.42874256766842A120,120,0,0,0,26.772166372609533,-116.97542950430794Z"><title>América</title></path><path fill="#1f77b4" display="" d="M121.6825848761037,129.91284977964966A178,178,0,0,1,-55.88713326046599,168.99890039857334L-37.36721099796168,114.033729844436A120,120,0,0,0,81.79508257535443,87.80412556646158Z"><title>África</title></path><path fill="#1f77b4" display="" d="M-57.78241766649173,168.36030472951487A178,178,0,0,1,-146.76513616814012,100.71740070885114L-98.75805052446132,68.16778899603494A120,120,0,0,0,-39.262495403987444,113.39513417537749Z"><title>Asia</title></path><path fill="#1f77b4" display="" d="M-147.88749730846862,99.06204187193842A178,178,0,0,1,-164.98511281068738,66.8125179202577L-111.10320179273408,45.344002375209556A120,120,0,0,0,-99.88041166478988,66.51243015912219Z"><title>América</title></path><path fill="#1f77b4" display="" d="M-165.7253805533841,64.95458598464023A178,178,0,0,1,-157.73106519317724,-82.49188489194357L-106.48616707396594,-55.32355937478547A120,120,0,0,0,-111.8434695354308,43.486070439592055Z"><title>África</title></path><path fill="#1f77b4" display="" d="M-156.79425915452802,-84.2588885292389A178,178,0,0,1,-0.9999884259661287,-177.99719105409483L-0.9999884259661855,-119.99583335744592A120,120,0,0,0,-105.54936103531669,-57.09056301208082Z"><title>Asia</title></path><path fill="#1f77b4" display="" d="M0.9999884259661359,-237.9978991990222A238,238,0,0,1,50.18590390784208,-232.64860852571812L37.71747285481712,-176.0039551869393A180,180,0,0,0,0.9999884259661274,-179.99722226508922Z"><title>Bolivia</title></path><path fill="#1f77b4" display="" d="M52.13912241238345,-232.2186726214464A238,238,0,0,1,99.02515915254556,-216.42092748810828L74.67130702486928,-163.78093877859448A180,180,0,0,0,39.67069135935848,-175.57401928266756Z"><title>Colombia</title></path><path fill="#1f77b4" display="" d="M100.84028898327014,-215.58115900460913A238,238,0,0,1,143.2341080138356,-190.07364441573924L108.13359386963558,-143.8997077024019A180,180,0,0,0,76.48643685559387,-162.94117029509533Z"><title>Costa Rica</title></path><path fill="#1f77b4" display="" d="M144.82627571723066,-188.86330999396543A238,238,0,0,1,180.7455891776758,-154.83872898217308L136.53967404691534,-117.28988622708316A180,180,0,0,0,109.72576157303062,-142.68937328062813Z"><title>Ecuador</title></path><path fill="#1f77b4" display="" d="M182.0403467614979,-153.3144225144967A238,238,0,0,1,209.805607475862,-112.3637266722875L158.56131081870956,-85.19572003013167A180,180,0,0,0,137.8344316307374,-115.76557975940679Z"><title>El Salvador</title></path><path fill="#1f77b4" display="" d="M210.7424135145112,-110.59672303499214A238,238,0,0,1,229.05534875066147,-64.63472138651832L173.1687969248605,-49.11789665281313A180,180,0,0,0,159.4981168573588,-83.42871639283631Z"><title>Guatemala</title></path><path fill="#1f77b4" display="" d="M229.5903992349558,-62.7076437058004A238,238,0,0,1,237.59471649461545,-13.883468365048786L179.6791025500992,-10.743375018630266A180,180,0,0,0,173.7038474091548,-47.19081897209521Z"><title>Jamaica</title></path><path fill="#1f77b4" display="" d="M237.70299305857515,-11.886424651465676A238,238,0,0,1,235.0244193628422,37.51696020680361L177.78781303907462,28.13349489102003A180,180,0,0,0,179.78737911405892,-8.746331305047153Z"><title>Nicaragua</title></path><path fill="#1f77b4" display="" d="M234.70085911467729,39.490590408759445A238,238,0,0,1,221.46464159254336,87.16313741649229L167.58336298730487,65.6948738477A180,180,0,0,0,177.4642527909097,30.107125092975853Z"><title>Panamá</title></path><path fill="#1f77b4" display="" d="M220.72437384984664,89.02106935210979A238,238,0,0,1,197.54942332164754,132.73366319545508L149.54290113777907,100.18443351786959A180,180,0,0,0,166.84309524460815,67.55280578331751Z"><title>Perú</title></path><path fill="#1f77b4" display="" d="M196.42706218131897,134.38902203236782A238,238,0,0,1,164.3970135766458,172.09771040626933L124.50997943604786,129.98948042374406A180,180,0,0,0,148.42053999745053,101.83979235478235Z"><title>Venezuela</title></path><path fill="#1f77b4" display="" d="M162.94503939819242,173.47309340506243A238,238,0,0,1,123.55758219095748,203.4146599513535L93.65510947879004,153.71636369793507A180,180,0,0,0,123.0580052575945,131.36486342253716Z"><title>Etiopía</title></path><path fill="#1f77b4" display="" d="M121.84388767321028,204.44575573163195A238,238,0,0,1,76.94073558640935,225.2201660762691L58.42103069248192,170.25564064907832A180,180,0,0,0,91.94141496104284,154.7474594782135Z"><title>Kenia</title></path><path fill="#1f77b4" display="" d="M75.04545118038357,225.85876174532763A238,238,0,0,1,26.726225699326395,236.4946275496944L20.45524944130542,178.83395306902426A180,180,0,0,0,56.52574628645613,170.89423631813682Z"><title>Mozambique</title></path><path fill="#1f77b4" display="" d="M24.73797279739047,236.7108630837959A238,238,0,0,1,-24.737972797390654,236.71086308379589L-18.466996539369642,179.05018860312578A180,180,0,0,0,18.466996539369504,179.05018860312578Z"><title>Tanzania</title></path><path fill="#1f77b4" display="" d="M-26.726225699326584,236.49462754969437A238,238,0,0,1,-75.04545118038374,225.85876174532757L-56.525746286456275,170.89423631813676A180,180,0,0,0,-20.455249441305558,178.83395306902426Z"><title>Zambia</title></path><path fill="#1f77b4" display="" d="M-76.94073558640943,225.2201660762691A238,238,0,0,1,-121.84388767321039,204.4457557316319L-91.94141496104287,154.7474594782135A180,180,0,0,0,-58.42103069248197,170.2556406490783Z"><title>India</title></path><path fill="#1f77b4" display="" d="M-123.55758219095748,203.4146599513535A238,238,0,0,1,-162.9450393981925,173.47309340506237L-123.05800525759454,131.36486342253716A180,180,0,0,0,-93.65510947879005,153.71636369793507Z"><title>Indonesia</title></path><path fill="#1f77b4" display="" d="M-164.39701357664586,172.09771040626927A238,238,0,0,1,-196.42706218131906,134.38902203236773L-148.4205399974506,101.83979235478229A180,180,0,0,0,-124.50997943604794,129.98948042374397Z"><title>Yemen</title></path><path fill="#1f77b4" display="" d="M-197.54942332164754,132.73366319545505A238,238,0,0,1,-220.72437384984667,89.02106935210968L-166.84309524460818,67.55280578331745A180,180,0,0,0,-149.54290113777913,100.18443351786954Z"><title>Brasil</title></path><path fill="#1f77b4" display="" d="M-221.46464159254336,87.16313741649226A238,238,0,0,1,-234.70085911467729,39.49059040875932L-177.4642527909097,30.107125092975803A180,180,0,0,0,-167.5833629873049,65.69487384769994Z"><title>Angola</title></path><path fill="#1f77b4" display="" d="M-235.0244193628422,37.516960206803574A238,238,0,0,1,-237.70299305857515,-11.886424651465795L-179.78737911405892,-8.746331305047208A180,180,0,0,0,-177.78781303907462,28.133494891019968Z"><title>Camerún</title></path><path fill="#1f77b4" display="" d="M-237.59471649461545,-13.883468365048817A238,238,0,0,1,-229.59039923495578,-62.70764370580052L-173.7038474091548,-47.19081897209527A180,180,0,0,0,-179.6791025500992,-10.743375018630326Z"><title>Costa de Marfil</title></path><path fill="#1f77b4" display="" d="M-229.05534875066147,-64.63472138651835A238,238,0,0,1,-210.74241351451116,-110.59672303499224L-159.49811685735878,-83.42871639283635A180,180,0,0,0,-173.16879692486046,-49.117896652813194Z"><title>Uganda</title></path><path fill="#1f77b4" display="" d="M-209.80560747586196,-112.36372667228753A238,238,0,0,1,-182.04034676149777,-153.3144225144968L-137.83443163073736,-115.76557975940685A180,180,0,0,0,-158.56131081870953,-85.19572003013172Z"><title>India</title></path><path fill="#1f77b4" display="" d="M-180.74558917767578,-154.8387289821731A238,238,0,0,1,-144.8262757172305,-188.86330999396557L-109.72576157303057,-142.6893732806282A180,180,0,0,0,-136.53967404691528,-117.28988622708322Z"><title>Java</title></path><path fill="#1f77b4" display="" d="M-143.2341080138355,-190.0736444157393A238,238,0,0,1,-100.84028898326999,-215.58115900460922L-76.48643685559378,-162.94117029509536A180,180,0,0,0,-108.13359386963549,-143.899707702402Z"><title>Sri Lanka</title></path><path fill="#1f77b4" display="" d="M-99.02515915254547,-216.4209274881083A238,238,0,0,1,-52.13912241238323,-232.21867262144644L-39.67069135935835,-175.5740192826676A180,180,0,0,0,-74.67130702486918,-163.7809387785945Z"><title>Sumatra</title></path><path fill="#1f77b4" display="" d="M-50.185903907841954,-232.64860852571815A238,238,0,0,1,-0.9999884259659008,-237.9978991990222L-0.9999884259659895,-179.99722226508922A180,180,0,0,0,-37.71747285481698,-176.00395518693932Z"><title>Vietnam</title></path></g><g id="labels" transform="translate(250,250)" text-anchor="middle"><text transform="rotate(90) translate(30,0) rotate(180)"><tspan x="0" y="4" style="font-family: Arial, sans-serif; font-size: 10px; fill: black; font-weight: normal; font-style: italic;"/></text><text transform="rotate(27.93103448275862) translate(90,0) rotate(0)"><tspan x="0" y="4" style="font-family: Arial, sans-serif; font-size: 10px; fill: black; font-weight: normal; font-style: italic;">Arábica</tspan></text><text transform="rotate(207.9310344827586) translate(90,0) rotate(180)"><tspan x="0" y="4" style="font-family: Arial, sans-serif; font-size: 10px; fill: black; font-weight: normal; font-style: italic;">Robusta</tspan></text><text transform="rotate(-83.79310344827586) translate(150,0) rotate(0)"><tspan x="0" y="4" style="font-family: Arial, sans-serif; font-size: 10px; fill: black; font-weight: normal; font-style: italic;"> América</tspan></text><text transform="rotate(-15.517241379310349) translate(150,0) rotate(0)"><tspan x="0" y="4" style="font-family: Arial, sans-serif; font-size: 10px; fill: black; font-weight: normal; font-style: italic;">América</tspan></text><text transform="rotate(77.58620689655174) translate(150,0) rotate(0)"><tspan x="0" y="4" style="font-family: Arial, sans-serif; font-size: 10px; fill: black; font-weight: normal; font-style: italic;">África</tspan></text><text transform="rotate(127.24137931034485) translate(150,0) rotate(180)"><tspan x="0" y="4" style="font-family: Arial, sans-serif; font-size: 10px; fill: black; font-weight: normal; font-style: italic;">Asia</tspan></text><text transform="rotate(152.06896551724134) translate(150,0) rotate(180)"><tspan x="0" y="4" style="font-family: Arial, sans-serif; font-size: 10px; fill: black; font-weight: normal; font-style: italic;">América</tspan></text><text transform="rotate(183.1034482758621) translate(150,0) rotate(180)"><tspan x="0" y="4" style="font-family: Arial, sans-serif; font-size: 10px; fill: black; font-weight: normal; font-style: italic;">África</tspan></text><text transform="rotate(238.96551724137936) translate(150,0) rotate(180)"><tspan x="0" y="4" style="font-family: Arial, sans-serif; font-size: 10px; fill: black; font-weight: normal; font-style: italic;">Asia</tspan></text><text transform="rotate(-83.79310344827586) translate(210,0) rotate(0)"><tspan x="0" y="4" style="font-family: Arial, sans-serif; font-size: 10px; fill: black; font-weight: normal; font-style: italic;">Bolivia</tspan></text><text transform="rotate(-71.37931034482759) translate(210,0) rotate(0)"><tspan x="0" y="4" style="font-family: Arial, sans-serif; font-size: 10px; fill: black; font-weight: normal; font-style: italic;">Colombia</tspan></text><text transform="rotate(-58.96551724137931) translate(210,0) rotate(0)"><tspan x="0" y="4" style="font-family: Arial, sans-serif; font-size: 10px; fill: black; font-weight: normal; font-style: italic;">Costa Rica</tspan></text><text transform="rotate(-46.55172413793103) translate(210,0) rotate(0)"><tspan x="0" y="4" style="font-family: Arial, sans-serif; font-size: 10px; fill: black; font-weight: normal; font-style: italic;">Ecuador</tspan></text><text transform="rotate(-34.13793103448276) translate(210,0) rotate(0)"><tspan x="0" y="4" style="font-family: Arial, sans-serif; font-size: 10px; fill: black; font-weight: normal; font-style: italic;">El Salvador</tspan></text><text transform="rotate(-21.724137931034477) translate(210,0) rotate(0)"><tspan x="0" y="4" style="font-family: Arial, sans-serif; font-size: 10px; fill: black; font-weight: normal; font-style: italic;">Guatemala</tspan></text><text transform="rotate(-9.310344827586192) translate(210,0) rotate(0)"><tspan x="0" y="4" style="font-family: Arial, sans-serif; font-size: 10px; fill: black; font-weight: normal; font-style: italic;">Jamaica</tspan></text><text transform="rotate(3.1034482758620925) translate(210,0) rotate(0)"><tspan x="0" y="4" style="font-family: Arial, sans-serif; font-size: 10px; fill: black; font-weight: normal; font-style: italic;">Nicaragua</tspan></text><text transform="rotate(15.517241379310363) translate(210,0) rotate(0)"><tspan x="0" y="4" style="font-family: Arial, sans-serif; font-size: 10px; fill: black; font-weight: normal; font-style: italic;">Panamá</tspan></text><text transform="rotate(27.931034482758648) translate(210,0) rotate(0)"><tspan x="0" y="4" style="font-family: Arial, sans-serif; font-size: 10px; fill: black; font-weight: normal; font-style: italic;">Perú</tspan></text><text transform="rotate(40.34482758620692) translate(210,0) rotate(0)"><tspan x="0" y="4" style="font-family: Arial, sans-serif; font-size: 10px; fill: black; font-weight: normal; font-style: italic;">Venezuela</tspan></text><text transform="rotate(52.758620689655174) translate(210,0) rotate(0)"><tspan x="0" y="4" style="font-family: Arial, sans-serif; font-size: 10px; fill: black; font-weight: normal; font-style: italic;">Etiopía</tspan></text><text transform="rotate(65.17241379310346) translate(210,0) rotate(0)"><tspan x="0" y="4" style="font-family: Arial, sans-serif; font-size: 10px; fill: black; font-weight: normal; font-style: italic;">Kenia</tspan></text><text transform="rotate(77.58620689655174) translate(210,0) rotate(0)"><tspan x="0" y="4" style="font-family: Arial, sans-serif; font-size: 10px; fill: black; font-weight: normal; font-style: italic;">Mozambique</tspan></text><text transform="rotate(90.00000000000003) translate(210,0) rotate(180)"><tspan x="0" y="4" style="font-family: Arial, sans-serif; font-size: 10px; fill: black; font-weight: normal; font-style: italic;">Tanzania</tspan></text><text transform="rotate(102.41379310344831) translate(210,0) rotate(180)"><tspan x="0" y="4" style="font-family: Arial, sans-serif; font-size: 10px; fill: black; font-weight: normal; font-style: italic;">Zambia</tspan></text><text transform="rotate(114.82758620689657) translate(210,0) rotate(180)"><tspan x="0" y="4" style="font-family: Arial, sans-serif; font-size: 10px; fill: black; font-weight: normal; font-style: italic;">India</tspan></text><text transform="rotate(127.24137931034485) translate(210,0) rotate(180)"><tspan x="0" y="4" style="font-family: Arial, sans-serif; font-size: 10px; fill: black; font-weight: normal; font-style: italic;">Indonesia</tspan></text><text transform="rotate(139.6551724137931) translate(210,0) rotate(180)"><tspan x="0" y="4" style="font-family: Arial, sans-serif; font-size: 10px; fill: black; font-weight: normal; font-style: italic;">Yemen</tspan></text><text transform="rotate(152.06896551724134) translate(210,0) rotate(180)"><tspan x="0" y="4" style="font-family: Arial, sans-serif; font-size: 10px; fill: black; font-weight: normal; font-style: italic;">Brasil</tspan></text><text transform="rotate(164.48275862068968) translate(210,0) rotate(180)"><tspan x="0" y="4" style="font-family: Arial, sans-serif; font-size: 10px; fill: black; font-weight: normal; font-style: italic;">Angola</tspan></text><text transform="rotate(176.8965517241379) translate(210,0) rotate(180)"><tspan x="0" y="4" style="font-family: Arial, sans-serif; font-size: 10px; fill: black; font-weight: normal; font-style: italic;">Camerún</tspan></text><text transform="rotate(189.31034482758628) translate(210,0) rotate(180)"><tspan x="0" y="4" style="font-family: Arial, sans-serif; font-size: 10px; fill: black; font-weight: normal; font-style: italic;">Costa de Marfil</tspan></text><text transform="rotate(201.72413793103448) translate(210,0) rotate(180)"><tspan x="0" y="4" style="font-family: Arial, sans-serif; font-size: 10px; fill: black; font-weight: normal; font-style: italic;">Uganda</tspan></text><text transform="rotate(214.1379310344828) translate(210,0) rotate(180)"><tspan x="0" y="4" style="font-family: Arial, sans-serif; font-size: 10px; fill: black; font-weight: normal; font-style: italic;">India</tspan></text><text transform="rotate(226.55172413793105) translate(210,0) rotate(180)"><tspan x="0" y="4" style="font-family: Arial, sans-serif; font-size: 10px; fill: black; font-weight: normal; font-style: italic;">Java</tspan></text><text transform="rotate(238.96551724137936) translate(210,0) rotate(180)"><tspan x="0" y="4" style="font-family: Arial, sans-serif; font-size: 10px; fill: black; font-weight: normal; font-style: italic;">Sri Lanka</tspan></text><text transform="rotate(251.37931034482762) translate(210,0) rotate(180)"><tspan x="0" y="4" style="font-family: Arial, sans-serif; font-size: 10px; fill: black; font-weight: normal; font-style: italic;">Sumatra</tspan></text><text transform="rotate(263.79310344827593) translate(210,0) rotate(180)"><tspan x="0" y="4" style="font-family: Arial, sans-serif; font-size: 10px; fill: black; font-weight: normal; font-style: italic;">Vietnam</tspan></text></g></svg>