<svg xmlns="http://www.w3.org/2000/svg" width="805" height="600"><rect width="805" height="600" x="0" y="0" fill="#FFFFFF" id="backgorund"/><g transform="translate(10,10)" id="visualization"><g><rect x="0" y="0" height="54" width="5" fill="black"><title>2003: 1</title></rect><rect x="0" y="59" height="54" width="5" fill="black"><title>2002: 1</title></rect><rect x="0" y="118" height="54" width="5" fill="black"><title>1998: 1</title></rect><rect x="0" y="177" height="54" width="5" fill="black"><title>1997: 1</title></rect><rect x="0" y="236" height="54" width="5" fill="black"><title>1995: 1</title></rect><rect x="0" y="295" height="54" width="5" fill="black"><title>1993: 1</title></rect><rect x="0" y="354" height="54" width="5" fill="black"><title>1992: 1</title></rect><rect x="0" y="413" height="54" width="5" fill="black"><title>1989: 1</title></rect><rect x="520" y="2.5" height="54" width="5" fill="black"><title>Buenos Aires: 1</title></rect><rect x="520" y="61.5" height="54" width="5" fill="black"><title>Cerro El Tigre: 1</title></rect><rect x="520" y="120.5" height="54" width="5" fill="black"><title>Keflavik: 1</title></rect><rect x="520" y="179.5" height="54" width="5" fill="black"><title>Ambato: 1</title></rect><rect x="520" y="238.5" height="54" width="5" fill="black"><title>Acapulco: 1</title></rect><rect x="520" y="297.5" height="54" width="5" fill="black"><title>Lagos-Murtala: 1</title></rect><rect x="520" y="356.5" height="54" width="5" fill="black"><title>Leoncel: 1</title></rect><rect x="780" y="10" height="54" width="5" fill="black"><title>5: 1</title></rect><rect x="780" y="69" height="54" width="5" fill="black"><title>26: 1</title></rect><rect x="0" y="472" height="108" width="5" fill="black"><title>1990: 2</title></rect><rect x="780" y="128" height="108" width="5" fill="black"><title>3: 2</title></rect><rect x="780" y="241" height="107.99999999999994" width="5" fill="black"><title>22: 2</title></rect><rect x="520" y="415.5" height="162" width="5" fill="black"><title>Pará: 3</title></rect><rect x="780" y="353.99999999999994" height="216.00000000000006" width="5" fill="black"><title>0: 4</title></rect><rect x="260" y="20" height="540" width="5" fill="black"><title>Fairchild-Hiller FH-227: 10</title></rect></g><g fill="none" stroke-opacity="1"><g style="mix-blend-mode: multiply;"><path d="M5,27C132.5,27,132.5,47,260,47" stroke="#cccccc" stroke-width="54"/><title>2003 → Fairchild-Hiller FH-227: 1</title></g><g style="mix-blend-mode: multiply;"><path d="M5,86C132.5,86,132.5,101,260,101" stroke="#cccccc" stroke-width="54"/><title>2002 → Fairchild-Hiller FH-227: 1</title></g><g style="mix-blend-mode: multiply;"><path d="M5,145C132.5,145,132.5,155,260,155" stroke="#cccccc" stroke-width="54"/><title>1998 → Fairchild-Hiller FH-227: 1</title></g><g style="mix-blend-mode: multiply;"><path d="M5,204C132.5,204,132.5,209,260,209" stroke="#cccccc" stroke-width="54"/><title>1997 → Fairchild-Hiller FH-227: 1</title></g><g style="mix-blend-mode: multiply;"><path d="M5,263C132.5,263,132.5,263,260,263" stroke="#cccccc" stroke-width="54"/><title>1995 → Fairchild-Hiller FH-227: 1</title></g><g style="mix-blend-mode: multiply;"><path d="M5,322C132.5,322,132.5,317,260,317" stroke="#cccccc" stroke-width="54"/><title>1993 → Fairchild-Hiller FH-227: 1</title></g><g style="mix-blend-mode: multiply;"><path d="M5,381C132.5,381,132.5,371,260,371" stroke="#cccccc" stroke-width="54"/><title>1992 → Fairchild-Hiller FH-227: 1</title></g><g style="mix-blend-mode: multiply;"><path d="M5,526C132.5,526,132.5,506,260,506" stroke="#cccccc" stroke-width="108"/><title>1990 → Fairchild-Hiller FH-227: 2</title></g><g style="mix-blend-mode: multiply;"><path d="M5,440C132.5,440,132.5,425,260,425" stroke="#17becf" stroke-width="54"/><title>1989 → Fairchild-Hiller FH-227: 1</title></g><g style="mix-blend-mode: multiply;"><path d="M265,47C392.5,47,392.5,29.5,520,29.5" stroke="#1f77b4" stroke-width="54"/><title>Fairchild-Hiller FH-227 → Buenos Aires: 1</title></g><g style="mix-blend-mode: multiply;"><path d="M265,101C392.5,101,392.5,88.5,520,88.5" stroke="#1f77b4" stroke-width="54"/><title>Fairchild-Hiller FH-227 → Cerro El Tigre: 1</title></g><g style="mix-blend-mode: multiply;"><path d="M265,155C392.5,155,392.5,147.5,520,147.5" stroke="#1f77b4" stroke-width="54"/><title>Fairchild-Hiller FH-227 → Keflavik: 1</title></g><g style="mix-blend-mode: multiply;"><path d="M265,209C392.5,209,392.5,206.5,520,206.5" stroke="#1f77b4" stroke-width="54"/><title>Fairchild-Hiller FH-227 → Ambato: 1</title></g><g style="mix-blend-mode: multiply;"><path d="M265,479C392.5,479,392.5,496.5,520,496.5" stroke="#1f77b4" stroke-width="162"/><title>Fairchild-Hiller FH-227 → Pará: 3</title></g><g style="mix-blend-mode: multiply;"><path d="M265,263C392.5,263,392.5,265.5,520,265.5" stroke="#1f77b4" stroke-width="54"/><title>Fairchild-Hiller FH-227 → Acapulco: 1</title></g><g style="mix-blend-mode: multiply;"><path d="M265,317C392.5,317,392.5,324.5,520,324.5" stroke="#1f77b4" stroke-width="54"/><title>Fairchild-Hiller FH-227 → Lagos-Murtala: 1</title></g><g style="mix-blend-mode: multiply;"><path d="M265,371C392.5,371,392.5,383.5,520,383.5" stroke="#1f77b4" stroke-width="54"/><title>Fairchild-Hiller FH-227 → Leoncel: 1</title></g><g style="mix-blend-mode: multiply;"><path d="M525,29.5C652.5,29.5,652.5,37,780,37" stroke="#d62728" stroke-width="54"/><title>Buenos Aires → 5: 1</title></g><g style="mix-blend-mode: multiply;"><path d="M525,88.5C652.5,88.5,652.5,96,780,96" stroke="#9467bd" stroke-width="54"/><title>Cerro El Tigre → 26: 1</title></g><g style="mix-blend-mode: multiply;"><path d="M525,147.5C652.5,147.5,652.5,380.99999999999994,780,380.99999999999994" stroke="#8c564b" stroke-width="54"/><title>Keflavik → 0: 1</title></g><g style="mix-blend-mode: multiply;"><path d="M525,206.5C652.5,206.5,652.5,434.99999999999994,780,434.99999999999994" stroke="#2ca02c" stroke-width="54"/><title>Ambato → 0: 1</title></g><g style="mix-blend-mode: multiply;"><path d="M525,469.5C652.5,469.5,652.5,182,780,182" stroke="#bcbd22" stroke-width="108"/><title>Pará → 3: 2</title></g><g style="mix-blend-mode: multiply;"><path d="M525,265.5C652.5,265.5,652.5,488.99999999999994,780,488.99999999999994" stroke="#ff7f0e" stroke-width="54"/><title>Acapulco → 0: 1</title></g><g style="mix-blend-mode: multiply;"><path d="M525,550.5C652.5,550.5,652.5,322,780,322" stroke="#bcbd22" stroke-width="54"/><title>Pará → 22: 1</title></g><g style="mix-blend-mode: multiply;"><path d="M525,324.5C652.5,324.5,652.5,543,780,543" stroke="#e377c2" stroke-width="54"/><title>Lagos-Murtala → 0: 1</title></g><g style="mix-blend-mode: multiply;"><path d="M525,383.5C652.5,383.5,652.5,268,780,268" stroke="#7f7f7f" stroke-width="54"/><title>Leoncel → 22: 1</title></g></g><g><text x="9" y="27" text-anchor="start"><tspan alignment-baseline="middle" x="9" style="font-family: Arial, sans-serif; font-size: 10px; fill: black; font-weight: bold;">2003</tspan></text><text x="9" y="86" text-anchor="start"><tspan alignment-baseline="middle" x="9" style="font-family: Arial, sans-serif; font-size: 10px; fill: black; font-weight: bold;">2002</tspan></text><text x="9" y="145" text-anchor="start"><tspan alignment-baseline="middle" x="9" style="font-family: Arial, sans-serif; font-size: 10px; fill: black; font-weight: bold;">1998</tspan></text><text x="9" y="204" text-anchor="start"><tspan alignment-baseline="middle" x="9" style="font-family: Arial, sans-serif; font-size: 10px; fill: black; font-weight: bold;">1997</tspan></text><text x="9" y="263" text-anchor="start"><tspan alignment-baseline="middle" x="9" style="font-family: Arial, sans-serif; font-size: 10px; fill: black; font-weight: bold;">1995</tspan></text><text x="9" y="322" text-anchor="start"><tspan alignment-baseline="middle" x="9" style="font-family: Arial, sans-serif; font-size: 10px; fill: black; font-weight: bold;">1993</tspan></text><text x="9" y="381" text-anchor="start"><tspan alignment-baseline="middle" x="9" style="font-family: Arial, sans-serif; font-size: 10px; fill: black; font-weight: bold;">1992</tspan></text><text x="9" y="440" text-anchor="start"><tspan alignment-baseline="middle" x="9" style="font-family: Arial, sans-serif; font-size: 10px; fill: black; font-weight: bold;">1989</tspan></text><text x="516" y="29.5" text-anchor="end"><tspan alignment-baseline="middle" x="516" style="font-family: Arial, sans-serif; font-size: 10px; fill: black; font-weight: bold;">Buenos Aires</tspan></text><text x="516" y="88.5" text-anchor="end"><tspan alignment-baseline="middle" x="516" style="font-family: Arial, sans-serif; font-size: 10px; fill: black; font-weight: bold;">Cerro El Tigre</tspan></text><text x="516" y="147.5" text-anchor="end"><tspan alignment-baseline="middle" x="516" style="font-family: Arial, sans-serif; font-size: 10px; fill: black; font-weight: bold;">Keflavik</tspan></text><text x="516" y="206.5" text-anchor="end"><tspan alignment-baseline="middle" x="516" style="font-family: Arial, sans-serif; font-size: 10px; fill: black; font-weight: bold;">Ambato</tspan></text><text x="516" y="265.5" text-anchor="end"><tspan alignment-baseline="middle" x="516" style="font-family: Arial, sans-serif; font-size: 10px; fill: black; font-weight: bold;">Acapulco</tspan></text><text x="516" y="324.5" text-anchor="end"><tspan alignment-baseline="middle" x="516" style="font-family: Arial, sans-serif; font-size: 10px; fill: black; font-weight: bold;">Lagos-Murtala</tspan></text><text x="516" y="383.5" text-anchor="end"><tspan alignment-baseline="middle" x="516" style="font-family: Arial, sans-serif; font-size: 10px; fill: black; font-weight: bold;">Leoncel</tspan></text><text x="776" y="37" text-anchor="end"><tspan alignment-baseline="middle" x="776" style="font-family: Arial, sans-serif; font-size: 10px; fill: black; font-weight: bold;">5</tspan></text><text x="776" y="96" text-anchor="end"><tspan alignment-baseline="middle" x="776" style="font-family: Arial, sans-serif; font-size: 10px; fill: black; font-weight: bold;">26</tspan></text><text x="9" y="526" text-anchor="start"><tspan alignment-baseline="middle" x="9" style="font-family: Arial, sans-serif; font-size: 10px; fill: black; font-weight: bold;">1990</tspan></text><text x="776" y="182" text-anchor="end"><tspan alignment-baseline="middle" x="776" style="font-family: Arial, sans-serif; font-size: 10px; fill: black; font-weight: bold;">3</tspan></text><text x="776" y="295" text-anchor="end"><tspan alignment-baseline="middle" x="776" style="font-family: Arial, sans-serif; font-size: 10px; fill: black; font-weight: bold;">22</tspan></text><text x="516" y="496.5" text-anchor="end"><tspan alignment-baseline="middle" x="516" style="font-family: Arial, sans-serif; font-size: 10px; fill: black; font-weight: bold;">Pará</tspan></text><text x="776" y="462" text-anchor="end"><tspan alignment-baseline="middle" x="776" style="font-family: Arial, sans-serif; font-size: 10px; fill: black; font-weight: bold;">0</tspan></text><text x="269" y="290" text-anchor="start"><tspan alignment-baseline="middle" x="269" style="font-family: Arial, sans-serif; font-size: 10px; fill: black; font-weight: bold;">Fairchild-Hiller FH-227</tspan></text></g><g><text x="2.5" y="-4" text-anchor="middle" style="font-family: Arial, sans-serif; font-size: 12px; fill: rgb(123, 123, 123); font-weight: bold;">fecha</text><text x="522.5" y="-1.5" text-anchor="middle" style="font-family: Arial, sans-serif; font-size: 12px; fill: rgb(123, 123, 123); font-weight: bold;">Ubicacion</text><text x="782.5" y="6" text-anchor="middle" style="font-family: Arial, sans-serif; font-size: 12px; fill: rgb(123, 123, 123); font-weight: bold;">Muertes</text><text x="262.5" y="16" text-anchor="middle" style="font-family: Arial, sans-serif; font-size: 12px; fill: rgb(123, 123, 123); font-weight: bold;">Tipo de AA</text></g></g></svg>